<mxfile host="app.diagrams.net" modified="2024-03-04T12:21:48.429Z" agent="Mozilla/5.0 (Windows NT 10.0; Win64; x64) AppleWebKit/537.36 (KHTML, like Gecko) Chrome/122.0.0.0 Safari/537.36" version="24.0.1" etag="6c4J77TeqWsqx_NyfTvq" type="github">
  <diagram name="Strona-1" id="53C9JLSLHiBsVgQ7waYf">
    <mxGraphModel>
      <root>
        <mxCell id="0" />
        <mxCell id="1" parent="0" />
      </root>
    </mxGraphModel>
  </diagram>
</mxfile>
